<svg xmlns="http://www.w3.org/2000/svg" width="52" height="52.250" viewBox="0 0 52 52.250" fill="none">
  <path d="M 44.423 7.593 C 39.535 2.699 33.034 0.003 26.108 0 C 11.838 0 0.223 11.614 0.217 25.89 C 0.215 30.453 1.407 34.907 3.673 38.833 L 0 52.25 L 13.725 48.65 C 17.507 50.712 21.765 51.799 26.098 51.801 L 26.109 51.801 C 40.378 51.801 51.994 40.185 52 25.91 C 52.002 18.992 49.312 12.487 44.423 7.593 Z M 26.109 47.428 L 26.1 47.428 C 22.239 47.427 18.451 46.389 15.147 44.429 L 14.361 43.963 L 6.216 46.099 L 8.39 38.158 L 7.879 37.343 C 5.725 33.917 4.587 29.957 4.589 25.891 C 4.593 14.026 14.247 4.373 26.117 4.373 C 31.865 4.375 37.269 6.616 41.331 10.684 C 45.394 14.752 47.63 20.158 47.628 25.908 C 47.623 37.774 37.97 47.428 26.109 47.428 Z M 37.913 31.311 C 37.266 30.987 34.085 29.422 33.492 29.206 C 32.899 28.991 32.468 28.883 32.037 29.53 C 31.606 30.178 30.365 31.635 29.988 32.067 C 29.611 32.498 29.233 32.553 28.587 32.229 C 27.939 31.905 25.855 31.222 23.384 29.018 C 21.461 27.302 20.163 25.184 19.785 24.536 C 19.408 23.888 19.745 23.538 20.069 23.216 C 20.36 22.926 20.716 22.46 21.039 22.082 C 21.363 21.705 21.471 21.434 21.686 21.003 C 21.902 20.571 21.794 20.193 21.632 19.87 C 21.471 19.545 20.177 16.361 19.638 15.066 C 19.113 13.805 18.579 13.975 18.182 13.955 C 17.805 13.937 17.374 13.932 16.942 13.932 C 16.511 13.932 15.81 14.094 15.217 14.742 C 14.624 15.39 12.953 16.955 12.953 20.139 C 12.953 23.323 15.271 26.399 15.594 26.831 C 15.918 27.263 20.156 33.797 26.646 36.6 C 28.189 37.267 29.394 37.664 30.334 37.963 C 31.884 38.455 33.294 38.386 34.409 38.219 C 35.652 38.033 38.236 36.654 38.775 35.143 C 39.314 33.632 39.314 32.336 39.153 32.066 C 38.991 31.797 38.56 31.635 37.913 31.311 Z" fill="currentColor" fill-rule="evenodd"></path>
</svg>