<svg xmlns="http://www.w3.org/2000/svg" width="42.839" height="47.980" viewBox="0 0 42.839 47.980" fill="none">
  <path d="M 31.498 0 L 23.045 0 L 23.045 32.682 C 23.045 36.576 19.794 39.775 15.749 39.775 C 11.703 39.775 8.452 36.576 8.452 32.682 C 8.452 28.858 11.631 25.728 15.532 25.589 L 15.532 17.384 C 6.935 17.523 0 24.268 0 32.682 C 0 41.166 7.08 47.98 15.821 47.98 C 24.562 47.98 31.642 41.096 31.642 32.682 L 31.642 15.924 C 34.821 18.149 38.722 19.47 42.839 19.54 L 42.839 11.334 C 36.482 11.126 31.498 6.119 31.498 0 Z" fill="currentColor" fill-rule="nonzero"></path>
</svg>