<svg xmlns="http://www.w3.org/2000/svg" width="122.549" height="73.878" viewBox="0 0 122.549 73.878" fill="none">
  <defs><linearGradient id="markGrad" x1="0" y1="0" x2="0" y2="1"><stop offset="9%" stop-color="#f09942"></stop><stop offset="81%" stop-color="#f37d3e"></stop></linearGradient></defs>
  <path d="M 97.408 10.836 C 89.891 12.266 83.225 16.28 78.448 21.983 L 85.507 4.033 C 85.865 3.029 86.324 1.695 86.807 0 L 80.438 0 C 80.361 0.35 80.267 0.714 80.154 1.104 L 80.143 1.143 L 79.283 3.605 L 71.435 24.741 L 63.842 5.434 L 59.533 5.434 L 51.941 24.741 L 44.084 3.577 L 43.247 1.181 L 43.224 1.106 C 43.111 0.716 43.017 0.352 42.94 0.002 L 36.571 0.002 C 37.053 1.699 37.512 3.031 37.871 4.035 L 44.825 21.718 C 40.012 15.538 33.043 11.172 25.135 9.667 L 0 4.888 C 3.494 8.55 7.803 11.386 12.563 13.142 L 31.737 20.22 C 36.413 21.946 40.565 24.888 43.741 28.727 L 45.265 30.569 L 14.704 18.811 C 15.287 19.614 15.833 20.443 16.35 21.251 C 19.801 26.643 25.118 30.397 31.323 31.818 L 47.685 35.572 L 37.873 60.524 C 37.617 61.245 37.282 62.209 36.919 63.394 C 36.682 64.168 36.432 65.033 36.185 65.986 C 36.02 66.617 35.995 67.606 37.689 68.898 L 38.573 69.572 L 38.264 70.422 L 29.192 69.213 L 29.192 73.775 L 48.122 73.775 C 48.14 73.055 48.14 72.916 48.105 72.238 C 48.105 72.238 44.052 70.964 43.553 70.109 C 42.189 67.775 42.714 65.191 43.228 63.449 L 43.237 63.415 L 43.245 63.394 L 44.097 60.955 L 51.945 39.819 L 59.537 59.124 L 63.849 59.124 L 71.441 39.819 L 79.3 60.985 L 80.137 63.379 L 80.141 63.394 L 80.158 63.449 C 80.672 65.191 81.197 67.775 79.833 70.109 C 79.752 70.245 79.667 70.38 79.575 70.51 C 78.512 71.335 75.311 72.341 75.311 72.341 C 75.281 72.904 75.276 73.095 75.287 73.556 C 75.276 73.56 75.268 73.564 75.257 73.566 C 75.257 73.63 75.259 73.699 75.262 73.775 L 75.291 73.775 C 75.291 73.807 75.291 73.841 75.294 73.878 L 94.224 73.878 L 94.224 69.316 L 85.159 70.522 L 85.123 70.42 L 84.849 69.67 L 85.729 68.998 C 85.889 68.877 86.032 68.757 86.162 68.642 C 86.258 68.555 86.348 68.469 86.431 68.386 C 86.653 68.163 86.822 67.947 86.947 67.747 C 86.973 67.704 86.997 67.664 87.022 67.625 C 87.272 67.182 87.325 66.798 87.298 66.474 C 87.289 66.333 87.261 66.206 87.231 66.088 C 87.231 66.088 87.231 66.088 87.231 66.086 C 87.193 65.937 87.152 65.788 87.114 65.641 C 87.018 65.274 86.918 64.924 86.822 64.585 C 86.783 64.451 86.747 64.317 86.706 64.189 C 86.638 63.95 86.568 63.72 86.499 63.498 C 86.489 63.464 86.478 63.43 86.467 63.396 C 86.104 62.211 85.769 61.247 85.513 60.527 L 76.053 36.474 L 91.227 32.993 C 97.432 31.569 102.749 27.817 106.2 22.426 C 106.716 21.618 107.263 20.787 107.846 19.985 L 77.285 31.744 L 78.809 29.902 C 81.985 26.063 86.136 23.121 90.813 21.394 L 109.986 14.317 C 114.746 12.56 119.055 9.723 122.549 6.063 L 97.415 10.842 L 97.408 10.836 Z M 61.687 50.989 L 54.739 32.275 L 61.687 13.56 L 68.636 32.275 L 61.687 50.989 Z" fill="url(#markGrad)" fill-rule="nonzero"></path>
</svg>