<svg xmlns="http://www.w3.org/2000/svg" width="548.702" height="73.878" viewBox="0 0 548.702 73.878" fill="none">
  <defs>
    <linearGradient id="markGrad" x1="0" y1="0" x2="0" y2="1"><stop offset="9%" stop-color="#f09942"></stop><stop offset="81%" stop-color="#f37d3e"></stop></linearGradient>
    <linearGradient id="swooshGrad" x1="0" y1="0" x2="1" y2="0"><stop offset="0%" stop-color="#7f5af8"></stop><stop offset="55%" stop-color="#f0601f"></stop><stop offset="100%" stop-color="#f37d3e"></stop></linearGradient>
  </defs>
  <g transform="translate(0.000, 0.000)"><path d="M 97.408 10.836 C 89.891 12.266 83.225 16.28 78.448 21.983 L 85.507 4.033 C 85.865 3.029 86.324 1.695 86.807 0 L 80.438 0 C 80.361 0.35 80.267 0.714 80.154 1.104 L 80.143 1.143 L 79.283 3.605 L 71.435 24.741 L 63.842 5.434 L 59.533 5.434 L 51.941 24.741 L 44.084 3.577 L 43.247 1.181 L 43.224 1.106 C 43.111 0.716 43.017 0.352 42.94 0.002 L 36.571 0.002 C 37.053 1.699 37.512 3.031 37.871 4.035 L 44.825 21.718 C 40.012 15.538 33.043 11.172 25.135 9.667 L 0 4.888 C 3.494 8.55 7.803 11.386 12.563 13.142 L 31.737 20.22 C 36.413 21.946 40.565 24.888 43.741 28.727 L 45.265 30.569 L 14.704 18.811 C 15.287 19.614 15.833 20.443 16.35 21.251 C 19.801 26.643 25.118 30.397 31.323 31.818 L 47.685 35.572 L 37.873 60.524 C 37.617 61.245 37.282 62.209 36.919 63.394 C 36.682 64.168 36.432 65.033 36.185 65.986 C 36.02 66.617 35.995 67.606 37.689 68.898 L 38.573 69.572 L 38.264 70.422 L 29.192 69.213 L 29.192 73.775 L 48.122 73.775 C 48.14 73.055 48.14 72.916 48.105 72.238 C 48.105 72.238 44.052 70.964 43.553 70.109 C 42.189 67.775 42.714 65.191 43.228 63.449 L 43.237 63.415 L 43.245 63.394 L 44.097 60.955 L 51.945 39.819 L 59.537 59.124 L 63.849 59.124 L 71.441 39.819 L 79.3 60.985 L 80.137 63.379 L 80.141 63.394 L 80.158 63.449 C 80.672 65.191 81.197 67.775 79.833 70.109 C 79.752 70.245 79.667 70.38 79.575 70.51 C 78.512 71.335 75.311 72.341 75.311 72.341 C 75.281 72.904 75.276 73.095 75.287 73.556 C 75.276 73.56 75.268 73.564 75.257 73.566 C 75.257 73.63 75.259 73.699 75.262 73.775 L 75.291 73.775 C 75.291 73.807 75.291 73.841 75.294 73.878 L 94.224 73.878 L 94.224 69.316 L 85.159 70.522 L 85.123 70.42 L 84.849 69.67 L 85.729 68.998 C 85.889 68.877 86.032 68.757 86.162 68.642 C 86.258 68.555 86.348 68.469 86.431 68.386 C 86.653 68.163 86.822 67.947 86.947 67.747 C 86.973 67.704 86.997 67.664 87.022 67.625 C 87.272 67.182 87.325 66.798 87.298 66.474 C 87.289 66.333 87.261 66.206 87.231 66.088 C 87.231 66.088 87.231 66.088 87.231 66.086 C 87.193 65.937 87.152 65.788 87.114 65.641 C 87.018 65.274 86.918 64.924 86.822 64.585 C 86.783 64.451 86.747 64.317 86.706 64.189 C 86.638 63.95 86.568 63.72 86.499 63.498 C 86.489 63.464 86.478 63.43 86.467 63.396 C 86.104 62.211 85.769 61.247 85.513 60.527 L 76.053 36.474 L 91.227 32.993 C 97.432 31.569 102.749 27.817 106.2 22.426 C 106.716 21.618 107.263 20.787 107.846 19.985 L 77.285 31.744 L 78.809 29.902 C 81.985 26.063 86.136 23.121 90.813 21.394 L 109.986 14.317 C 114.746 12.56 119.055 9.723 122.549 6.063 L 97.415 10.842 L 97.408 10.836 Z M 61.687 50.989 L 54.739 32.275 L 61.687 13.56 L 68.636 32.275 L 61.687 50.989 Z" fill="url(#markGrad)" fill-rule="nonzero"></path></g>
  <g transform="translate(202.277, 27.306)"><path d="M 10.734 31.971 C 9.11 31.971 7.879 31.389 7.033 30.352 C 5.345 28.278 5.666 25.747 5.736 21.857 L 5.736 0 L 0.02 2.092 L 0.02 22.763 C -0.175 28.276 1.059 30.09 2.747 31.843 C 4.564 33.724 6.835 34.63 9.436 34.63 C 13.527 34.63 16.644 31.907 18.07 28.145 L 16.77 27.172 C 15.863 29.831 13.653 31.971 10.731 31.971 L 10.734 31.971 Z" fill="#f37d3e" fill-rule="nonzero"></path></g>
  <g transform="translate(132.549, 11.940)"><path d="M 63.715 14.221 C 62.209 14.794 60.706 15.376 59.205 15.966 L 59.205 0 L 49.075 1.332 L 49.075 5.806 C 50.894 4.897 53.49 2.787 55.438 2.205 C 53.425 3.955 53.554 5.51 53.554 7.261 L 53.554 18.204 C 48.774 20.104 43.989 21.982 39.132 23.633 L 31.755 3.565 L 29.288 3.565 L 19.492 28.471 C 12.941 29.307 6.139 29.138 0.11 26.235 L 0 26.425 C 2.315 27.962 4.929 29.02 7.627 29.697 C 11.204 30.496 14.894 30.77 18.636 30.65 L 15.262 39.232 C 14.938 40.141 14.547 41.308 14.159 42.8 C 13.769 44.291 14.871 45.654 17.402 46.757 C 14.483 46.3 11.949 45.654 9.678 44.681 L 9.678 48.959 L 24.284 48.959 L 24.284 47.337 C 19.286 46.172 19.869 43.254 20.843 40.659 L 24.873 30.105 C 28.977 29.541 33.111 28.586 37.208 27.408 L 42.268 41.891 L 44.67 48.959 L 49.07 48.959 L 63.031 48.959 L 63.031 44.678 C 60.757 45.651 58.421 46.298 55.952 46.752 C 59.264 45.715 59.197 43.639 59.197 41.239 L 59.197 19.495 C 60.7 18.9 62.176 18.315 63.62 17.75 M 25.929 27.357 L 25.947 27.308 L 25.957 27.275 L 26.913 24.444 L 26.89 24.444 L 27.142 23.766 L 31.564 11.801 L 31.696 11.801 L 35.995 23.766 L 36.239 24.444 L 36.221 24.444 L 36.265 24.575 C 32.865 25.658 29.429 26.607 25.929 27.354 L 25.929 27.357 Z M 49.077 47.34 C 49.077 47.34 48.173 47.458 47.808 47.34 C 47.764 47.258 47.726 47.173 47.692 47.083 L 44.678 38.714 L 40.191 26.51 C 44.747 25.078 49.234 23.409 53.557 21.728 L 53.557 38.842 C 53.557 43.577 54.011 46.169 49.077 47.337 L 49.077 47.34 Z" fill="#f37d3e" fill-rule="nonzero"></path></g>
  <g transform="translate(225.212, 27.309)"><path d="M 21.951 31.386 C 25.261 30.609 25.392 28.337 25.392 25.94 L 25.392 12.127 C 25.456 4.278 21.496 0 13.574 0 C 11.04 0 9.03 0.454 7.535 1.104 C 4.417 2.466 1.95 4.992 1.95 7.913 C 1.95 9.404 2.922 10.7 4.674 10.895 C 6.232 10.895 7.468 9.989 7.663 8.364 C 7.727 7.587 7.532 6.614 6.818 5.9 C 8.051 3.434 10.842 1.879 13.571 1.879 C 19.219 1.879 19.803 7.456 19.803 11.478 L 19.803 15.499 C 13.049 15.499 0 18.027 0 26.913 C 0 31.26 3.184 34.63 9.739 34.63 C 13.571 34.63 17.012 32.816 19.803 30.026 L 19.803 33.593 L 29.606 33.593 L 29.606 29.312 C 26.816 30.544 24.217 31.26 21.946 31.386 L 21.951 31.386 Z M 19.805 27.105 C 17.207 29.505 14.804 30.929 11.235 30.929 C 8.573 30.929 6.363 29.31 6.17 26.132 C 6.039 19.711 14.612 16.793 19.805 16.405 L 19.805 27.105 Z" fill="#f37d3e" fill-rule="nonzero"></path></g>
  <g transform="translate(196.176, 11.939)"><path d="M 0 17.758 C 13.751 12.337 28.247 7.428 43.205 8.711 C 49.941 9.301 56.597 11.134 62.466 14.568 L 62.589 14.383 C 55.916 9.453 47.525 6.968 39.263 6.439 C 30.914 5.831 22.527 7.173 14.501 9.399 C 13.088 9.789 11.682 10.207 10.287 10.649 C 10.616 8.4 11.574 1.853 11.836 0 L 1.642 1.329 L 1.642 5.61 C 3.256 4.994 4.867 3.706 6.532 2.877 C 7.147 2.569 7.768 2.33 8.398 2.207 C 6.82 3.298 6.327 4.314 6.178 5.346 L 5.165 12.36 C 3.467 12.958 1.776 13.582 0.09 14.224" fill="url(#swooshGrad)" fill-rule="nonzero"></path></g>
  <g transform="translate(268.766, 17.599)"><path d="M 41.867 1.755 L 46.231 1.755 C 45.937 2.257 45.766 2.836 45.766 3.445 C 45.766 5.34 47.311 6.883 49.208 6.883 C 51.105 6.883 52.65 5.31 52.65 3.445 C 52.65 1.739 51.327 0.281 49.673 0.046 L 49.734 0.01 L 41.867 0.003 C 41.867 0.003 41.859 0.003 41.844 0.003 L 41.645 0.003 L 41.645 0.01 C 41.642 0.01 41.637 0.01 41.634 0.01 L 41.645 0.003 L 34.569 0.003 L 32.398 6.212 C 32.317 6.424 32.24 6.638 32.169 6.865 L 32.087 7.1 C 31.262 9.451 30.208 12.394 28.609 16.852 C 27.69 19.418 26.587 22.493 25.238 26.263 C 24.899 27.214 24.59 28.071 24.301 28.871 C 23.5 31.098 22.861 32.865 22.192 34.951 C 21.47 32.947 20.206 30.037 18.87 26.961 C 18.336 25.732 17.785 24.46 17.236 23.177 C 15.63 19.39 14.333 16.166 12.961 12.751 C 12.443 11.466 11.922 10.165 11.376 8.819 C 10.508 6.664 10.431 4.848 11.156 3.563 C 11.7 2.599 12.686 1.974 14.008 1.76 L 14.1 1.744 L 14.1 0 L 0 0 L 0 4.335 L 0.148 4.279 C 2.293 3.461 4.147 2.823 6.082 2.407 C 4.218 4.004 4.236 6.722 6.116 11.122 L 20.149 43.969 L 22.026 43.969 L 22.052 43.898 C 30.274 21.468 33.126 13.567 34.199 10.591 C 34.73 9.122 34.888 8.679 35.069 8.217 C 36.688 3.56 38.376 1.931 41.757 1.76 L 41.862 1.755 L 41.867 1.755 Z" fill="#f37d3e" fill-rule="nonzero"></path></g>
  <g transform="translate(310.405, 28.379)"><path d="M 8.015 29.892 C 10.275 28.736 10.267 27.178 10.26 25.115 L 10.26 0 L 0.707 1.069 L 0.707 5.613 L 0.863 5.554 C 3.102 4.7 4.333 2.966 6.353 2.53 C 4.425 4.037 4.443 5.435 4.461 6.906 C 4.461 7.051 4.463 7.199 4.463 7.35 L 4.463 22.335 C 4.463 22.715 4.466 23.082 4.469 23.434 C 4.502 27.433 4.517 29.637 0.089 30.682 L 0 30.703 L 0 32.523 L 14.133 32.523 L 14.133 27.971 L 13.973 28.04 C 12.149 28.82 10.188 29.43 8.01 29.889 L 8.015 29.892 Z" fill="#f37d3e" fill-rule="nonzero"></path></g>
  <g transform="translate(325.319, 11.939)"><path d="M 34.69 31.332 C 34.675 30.717 34.636 30.115 34.573 29.531 C 34.56 29.419 34.547 29.315 34.534 29.205 C 34.501 28.935 34.463 28.664 34.417 28.394 C 34.412 28.358 34.407 28.325 34.401 28.289 C 34.363 28.068 34.32 27.843 34.274 27.621 C 34.253 27.522 34.233 27.422 34.212 27.328 C 34.182 27.198 34.151 27.065 34.118 26.935 C 34.075 26.754 34.026 26.573 33.978 26.397 C 33.952 26.31 33.929 26.224 33.904 26.14 C 33.855 25.974 33.801 25.808 33.75 25.647 C 33.709 25.515 33.666 25.382 33.62 25.252 C 33.584 25.153 33.549 25.056 33.513 24.959 C 33.449 24.785 33.383 24.612 33.311 24.438 C 33.301 24.416 33.293 24.39 33.28 24.365 C 32.382 22.204 31.041 20.248 29.2 18.726 C 25.074 15.235 18.922 14.574 14.017 16.727 C 12.648 17.341 11.382 18.185 10.304 19.236 C 10.312 17.772 10.338 0.02 10.34 0.01 C 6.913 -0.003 3.464 -0.003 0.027 0.01 C 0.009 1.501 -0.004 3.009 0.001 4.506 C 2.103 3.695 4.235 2.935 6.436 2.463 C 4.669 3.807 4.38 5.12 4.493 7.382 C 4.498 13.671 4.523 29.97 4.531 35.823 C 4.534 38.154 4.998 40.469 5.969 42.589 C 6.556 43.871 7.353 45.131 8.405 45.97 C 8.435 46.001 8.466 46.032 8.497 46.06 C 10.327 48.253 13.54 49.597 16.471 49.839 C 20.633 50.201 24.456 49.003 27.517 46.769 C 27.604 46.707 27.693 46.641 27.78 46.577 C 27.824 46.544 27.862 46.514 27.905 46.48 C 30.022 44.858 31.792 42.701 32.989 40.087 C 33.886 38.167 34.45 36.06 34.618 33.846 C 34.537 34.831 34.376 35.808 34.138 36.766 C 34.394 35.708 34.565 34.594 34.641 33.433 C 34.641 33.398 34.647 33.362 34.649 33.329 C 34.649 33.344 34.649 33.362 34.649 33.38 C 34.654 33.329 34.659 33.275 34.662 33.224 C 34.662 33.209 34.662 33.194 34.662 33.178 C 34.67 33.058 34.675 32.939 34.68 32.816 L 34.68 32.791 C 34.685 32.663 34.69 32.536 34.693 32.406 C 34.69 32.505 34.69 32.602 34.685 32.701 C 34.721 31.885 34.705 31.062 34.641 30.24 C 34.67 30.605 34.682 30.972 34.69 31.337 L 34.69 31.332 Z M 25.464 43.106 C 24.075 45.218 22.004 46.567 19.722 47.047 C 20.151 46.965 20.572 46.85 20.973 46.707 C 20.334 46.939 19.663 47.095 18.958 47.174 C 19.139 47.151 19.321 47.123 19.499 47.09 C 19.234 47.136 18.968 47.172 18.7 47.197 C 18.43 47.22 18.161 47.233 17.886 47.233 C 17.441 47.233 17 47.21 16.565 47.161 C 15.805 47.059 15.044 46.868 14.295 46.577 C 14.74 46.763 15.202 46.911 15.682 47.018 C 14.967 46.868 14.28 46.628 13.652 46.274 C 13.754 46.33 13.859 46.378 13.963 46.427 C 12.551 45.736 11.484 44.445 10.945 42.971 C 10.077 40.656 10.325 37.883 10.297 35.448 C 10.297 32.191 10.345 23.648 10.363 20.274 C 13.075 17.262 17.924 15.377 21.662 17.601 C 25.268 19.902 26.703 24.428 27.507 28.417 C 28.396 33.324 28.317 38.819 25.467 43.101 L 25.464 43.106 Z" fill="#f37d3e" fill-rule="nonzero"></path></g>
  <g transform="translate(390.704, 27.398)"><path d="M 22.81 30.886 C 25.29 29.841 25.29 27.576 25.29 25.719 L 25.29 12.086 C 25.323 8.11 24.312 5.057 22.284 3.017 C 20.298 1.015 17.346 0 13.51 0 C 11.235 0 9.157 0.38 7.505 1.097 C 4.063 2.601 1.925 5.215 1.925 7.921 C 1.925 9.563 3.049 10.793 4.732 10.979 C 6.402 10.979 7.604 9.959 7.793 8.378 C 7.831 7.929 7.824 6.802 6.984 5.914 C 8.171 3.619 10.783 2.081 13.51 2.081 C 16.238 2.081 19.549 3.05 19.549 11.44 L 19.549 15.296 C 14.001 15.325 0 17.406 0 26.676 C 0 31.445 3.728 34.408 9.729 34.408 C 13.204 34.408 16.595 32.893 19.549 30.022 L 19.549 33.383 L 29.457 33.383 L 29.457 28.869 L 29.296 28.94 C 26.942 29.978 24.766 30.631 22.81 30.881 L 22.81 30.886 Z M 19.549 26.821 C 17.129 29.05 14.777 30.534 11.202 30.534 C 8.363 30.534 6.491 28.759 6.317 25.908 C 6.192 19.782 14.315 16.86 19.549 16.431 L 19.549 26.821 Z" fill="#f37d3e" fill-rule="nonzero"></path></g>
  <g transform="translate(423.417, 27.217)"><path d="M 28.28 25.954 C 25.856 29.616 21.837 31.715 17.261 31.715 C 11.118 31.21 6.825 24.908 6.825 16.393 C 6.825 12.109 7.854 8.477 9.8 5.894 C 11.641 3.45 14.241 2.104 17.121 2.104 C 20.456 2.104 22.782 3.535 24.036 6.36 C 23.533 6.944 23.344 7.482 23.344 8.319 C 23.344 9.678 24.475 11.081 26.375 11.081 C 27.912 11.015 29.071 9.77 29.071 8.189 C 29.071 4.165 24.554 0 16.993 0 C 6.828 0 0 9.311 0 18.007 C 0 27.849 6.616 34.722 16.089 34.722 C 20.206 34.722 26.257 32.712 29.768 27.046 L 29.825 26.956 L 28.349 25.852 L 28.282 25.954 L 28.28 25.954 Z" fill="#f37d3e" fill-rule="nonzero"></path></g>
  <g transform="translate(460.902, 17.608)"><path d="M 3.442 6.875 C 5.309 6.875 6.884 5.302 6.884 3.438 C 6.884 1.574 5.309 0 3.442 0 C 1.575 0 0 1.574 0 3.438 C 0 5.302 1.545 6.875 3.442 6.875 Z" fill="#f37d3e" fill-rule="nonzero"></path></g>
  <g transform="translate(457.276, 28.379)"><path d="M 8.013 29.892 C 10.273 28.736 10.267 27.178 10.257 25.115 L 10.257 0 L 0.705 1.069 L 0.705 5.613 L 0.861 5.554 C 3.1 4.7 4.331 2.966 6.35 2.53 C 4.423 4.037 4.44 5.435 4.458 6.906 C 4.458 7.051 4.463 7.199 4.463 7.35 L 4.463 22.335 C 4.463 22.715 4.466 23.082 4.469 23.434 C 4.502 27.433 4.52 29.637 0.089 30.682 L 0 30.703 L 0 32.523 L 14.133 32.523 L 14.133 27.971 L 13.973 28.04 C 12.149 28.82 10.188 29.43 8.008 29.889 L 8.013 29.892 Z" fill="#f37d3e" fill-rule="nonzero"></path></g>
  <g transform="translate(500.322, 16.042)"><path d="M 10.385 0.538 C 9.864 0.166 9.384 0 8.83 0 C 7.755 0 6.7 0.747 6.013 1.997 L 0 13.215 L 0.258 13.144 C 1.481 12.805 2.227 12.175 3.018 11.507 C 5.932 9.051 6.971 8.01 9.752 5.236 C 10.771 4.218 11.317 3.081 11.253 2.112 C 11.21 1.482 10.911 0.938 10.385 0.538 Z" fill="#f37d3e" fill-rule="nonzero"></path></g>
  <g transform="translate(475.529, 27.347)"><path d="M 16.347 0 C 11.869 0 7.732 1.844 4.701 5.19 C 1.67 8.538 0 13.113 0 18.071 C 0 27.489 7.027 34.592 16.347 34.592 C 25.667 34.592 32.758 26.655 32.758 16.521 C 32.758 7.258 25.55 0 16.347 0 Z M 16.347 32.748 C 14.072 32.748 12.188 31.827 10.748 30.014 C 8.038 26.798 6.831 22.539 6.831 16.199 C 6.831 12.899 7.637 9.4 8.991 6.84 C 10.193 4.562 12.448 1.846 16.35 1.846 C 19.981 1.846 22.343 4.973 23.683 7.595 C 25.136 10.494 25.936 14.33 25.936 18.395 C 25.936 23.725 23.916 32.748 16.35 32.748 L 16.347 32.748 Z" fill="#f37d3e" fill-rule="nonzero"></path></g>
  <g transform="translate(513.296, 27.350)"><path d="M 35.251 29.073 C 33.494 29.825 31.612 30.417 29.531 30.871 C 31.533 29.787 31.533 27.821 31.533 25.755 L 31.533 14.582 C 31.533 9.548 30.68 5.947 28.923 3.575 C 27.143 1.171 24.426 0 20.617 0 C 17.277 0 13.056 1.584 10.255 3.874 L 10.255 1.033 L 0.705 2.101 L 0.705 6.646 L 0.861 6.587 C 3.1 5.733 4.331 3.999 6.35 3.563 C 4.423 5.07 4.44 6.467 4.458 7.939 C 4.458 8.084 4.461 8.232 4.461 8.383 L 4.461 23.368 C 4.461 24.727 4.461 26.013 4.397 27.237 C 4.262 29.861 3.174 30.991 0.089 31.718 L 0 31.738 L 0 33.559 L 14.133 33.559 L 14.133 29.007 L 13.973 29.075 C 12.2 29.833 10.301 30.43 8.194 30.886 C 10.267 29.825 10.262 28.173 10.252 26.158 L 10.252 5.075 C 12.068 3.415 15.094 2.168 17.315 2.168 C 21.107 2.168 25.647 4.323 25.736 14.582 L 25.736 23.365 C 25.736 23.745 25.739 24.113 25.741 24.465 C 25.775 28.463 25.79 30.667 21.362 31.712 L 21.273 31.733 L 21.273 33.554 L 35.406 33.554 L 35.406 29.002 L 35.246 29.07 L 35.251 29.073 Z" fill="#f37d3e" fill-rule="nonzero"></path></g>
  <g transform="translate(363.900, 27.217)"><path d="M 20.992 0.003 C 16.702 0.003 12.234 3.3 10.339 6.488 L 10.339 1.041 L 0 2.224 L 0 6.773 L 0.153 6.715 C 2.403 5.855 4.349 4.001 6.379 3.565 C 4.435 5.08 4.453 6.483 4.471 7.959 C 4.471 8.107 4.474 8.255 4.474 8.403 L 4.474 23.429 C 4.474 23.796 4.476 24.156 4.479 24.503 C 4.512 28.56 4.532 31.011 0.1 31.478 L 0 31.488 L 0 33.643 L 14.167 33.643 L 14.167 29.086 L 14.011 29.152 C 12.285 29.892 10.439 30.476 8.401 30.927 C 10.344 29.871 10.342 27.887 10.342 25.959 L 10.342 7.855 C 12.047 5.562 14.333 2.943 16.909 2.943 C 17.683 2.943 18.492 3.213 19.253 3.726 C 19.148 4.613 19.378 5.47 19.909 6.146 C 20.471 6.863 21.314 7.312 22.292 7.411 C 24.24 7.411 25.711 5.998 25.711 4.126 C 25.711 1.084 23.275 0 20.995 0 L 20.992 0.003 Z" fill="#f37d3e" fill-rule="nonzero"></path></g>
</svg>